FFmpeg version SVN-r25716, Copyright (c) 2000-2010 the FFmpeg developers  built on Nov 10 2010 12:23:18 with gcc 4.1.2 20080704 (Red Hat 4.1.2-48)  configuration: --enable-libmp3lame --enable-shared --disable-mmx --arch=x86_64  libavutil     50.33. 0 / 50.33. 0  libavcore      0.12. 1 /  0.12. 1  libavcodec    52.94. 4 / 52.94. 4  libavformat   52.84. 0 / 52.84. 0  libavdevice   52. 2. 2 / 52. 2. 2  libavfilter    1.59. 0 /  1.59. 0  libswscale     0.12. 0 /  0.12. 0Input #0, mov,mp4,m4a,3gp,3g2,mj2, from '/RAID10/data/converted_video_files/11818.mov':  Duration: 00:00:02.50, start: 0.000000, bitrate: 13095 kb/s    Stream #0.0(eng): Video: rpza, rgb555le, 662x512, 13092 kb/s, 10 fps, 60 tbr, 60 tbn, 60 tbc[buffer @ 0xd607820] w:662 h:512 pixfmt:rgb555le[ffsink @ 0xd607a90] auto-inserting filter 'auto-inserted scaler 0' between the filter 'src' and the filter 'out'[scale @ 0xd607d80] w:662 h:512 fmt:rgb555le -> w:662 h:512 fmt:yuv420p flags:0x4Output #0, flv, to '/RAID10/data/converted_video_files/11818.flv':  Metadata:    encoder         : Lavf52.84.0    Stream #0.0(eng): Video: flv, yuv420p, 662x512, q=2-31, 600 kb/s, 1k tbn, 24 tbcStream mapping:  Stream #0.0 -> #0.0Press [q] to stop encodingframe=   25 fps=  0 q=24.8 size=     966kB time=2.46 bitrate=3218.5kbits/s    frame=   25 fps=  0 q=24.8 Lsize=     966kB time=2.46 bitrate=3218.5kbits/s    video:965kB audio:0kB global headers:0kB muxing overhead 0.061699%